<svg xmlns="http://www.w3.org/2000/svg" viewBox="0 0 225.2 79.3"><defs><style>.a{fill:#464547;}.b{fill:#00b5d1;}</style></defs><title>EPAM Systems logo - Brandlogos.net</title><path class="a" d="M441.9,507.85v14.5c0,3.7,1.8,5.5,5.5,5.5H449c3.7,0,5.5-1.8,5.5-5.5v-7.1H463v6.8c0,9.3-4.7,14.1-14.1,14.1h-1.8c-9.3,0-14.1-4.7-14.1-13v-35.6c0-10.4,4.7-15.2,14.1-15.2h1.8c9.3,0,14.1,4.7,14.1,14.1v21.3H441.9Zm0-8.5h12.5v-13.2c0-3.7-1.8-5.5-5.5-5.5h-1.4c-3.7,0-5.5,1.8-5.5,5.5v13.2Z" transform="translate(-399.4 -472.35)"/><path class="a" d="M468.8,473.15h8.8v4a14.74,14.74,0,0,1,10.7-4.7c7.5,0,11.2,5,11.2,12.3v39c0,7.4-3.7,12.3-11.2,12.3a14.86,14.86,0,0,1-10.7-4.5v20.1h-8.8Zm8.8,51.4a12.23,12.23,0,0,0,8.1,3.2c3.2,0,5.1-1.5,5.1-5.1v-36.8c0-3.6-1.8-5.1-5.1-5.1a12.75,12.75,0,0,0-8.1,3.2Z" transform="translate(-399.4 -472.35)"/><path class="a" d="M504.8,513.75c0-7.7,2.5-10.8,9.2-13.1l11.8-4v-10.5c0-3.7-1.8-5.7-5.5-5.7h-1.4c-3.7,0-5.5,2-5.5,5.7V495h-8.5v-8.5c0-9.3,4.7-14.1,14.1-14.1h1.7c9.3,0,14.1,4.7,14.1,14.1v48.9H526v-3.9a14.87,14.87,0,0,1-10.7,4.6c-7,0-10.3-4-10.3-11v-11.3Zm21,11.1v-20.5l-8,3c-3.2,1.3-4.3,2.9-4.3,6.5v9.5c0,3,1.5,4.5,4.3,4.5A14.48,14.48,0,0,0,525.8,524.85Z" transform="translate(-399.4 -472.35)"/><path class="a" d="M570,535.35h-8.8v-50.1c0-3.1-1.5-4.5-4.2-4.5-2.4,0-5,.9-8.1,3.1v51.5h-8.8v-62.2h8.8v4a15.09,15.09,0,0,1,10.7-4.7c4.5,0,7.5,1.8,9.1,5.1,3.1-2.7,6.8-5.1,11.9-5.1,6.8,0,10.3,4.2,10.3,11v52h-8.8v-50.2c0-3.1-1.5-4.5-4.2-4.5-2.4,0-5,.9-8.1,3.1v51.5Z" transform="translate(-399.4 -472.35)"/><path class="b" d="M421.9,478.85v11.5l-14.7,14,14.7,13.8v11.7l-22.5-21.2v-8.4Z" transform="translate(-399.4 -472.35)"/><path class="b" d="M624.6,500.25v8.4l-22.5,21.2v-11.7l14.7-13.8-14.7-14.1v-11.4Z" transform="translate(-399.4 -472.35)"/></svg>
